<mxfile host="drawio-plugin" modified="2023-11-15T23:10:21.055Z" agent="5.0 (Macintosh; Intel Mac OS X 10_15_7) AppleWebKit/537.36 (KHTML, like Gecko) Chrome/111.0.0.0 Safari/537.36" etag="YDjYmPOSlxdXLYb_469G" version="20.5.3" type="embed"><diagram id="C5RBs43oDa-KdzZeNtuy" name="Urubu do PIX"><mxGraphModel dx="1572" dy="1934" grid="1" gridSize="10" guides="1" tooltips="1" connect="1" arrows="1" fold="1" page="1" pageScale="1" pageWidth="827" pageHeight="1169" math="0" shadow="0"><root><mxCell id="WIyWlLk6GJQsqaUBKTNV-0"/><mxCell id="WIyWlLk6GJQsqaUBKTNV-1" parent="WIyWlLk6GJQsqaUBKTNV-0"/><mxCell id="QVTKkRBc17wnMV238mtj-28" value="Business" style="swimlane;horizontal=0;whiteSpace=wrap;html=1;fillColor=#e1d5e7;strokeColor=#9673a6;" parent="WIyWlLk6GJQsqaUBKTNV-1" vertex="1"><mxGeometry y="-160" width="1520" height="290" as="geometry"/></mxCell><mxCell id="QVTKkRBc17wnMV238mtj-24" value="Usuário" style="shape=umlActor;verticalLabelPosition=bottom;verticalAlign=top;html=1;outlineConnect=0;" parent="QVTKkRBc17wnMV238mtj-28" vertex="1"><mxGeometry x="80" y="100" width="30" height="60" as="geometry"/></mxCell><mxCell id="QVTKkRBc17wnMV238mtj-26" value="" style="edgeStyle=orthogonalEdgeStyle;rounded=0;orthogonalLoop=1;jettySize=auto;html=1;entryX=0;entryY=0.5;entryDx=0;entryDy=0;" parent="QVTKkRBc17wnMV238mtj-28" source="QVTKkRBc17wnMV238mtj-24" target="QVTKkRBc17wnMV238mtj-55" edge="1"><mxGeometry relative="1" as="geometry"><mxPoint x="170" y="130" as="targetPoint"/></mxGeometry></mxCell><mxCell id="QVTKkRBc17wnMV238mtj-63" style="edgeStyle=orthogonalEdgeStyle;rounded=0;orthogonalLoop=1;jettySize=auto;html=1;entryX=0;entryY=0.5;entryDx=0;entryDy=0;" parent="QVTKkRBc17wnMV238mtj-28" source="QVTKkRBc17wnMV238mtj-55" target="QVTKkRBc17wnMV238mtj-59" edge="1"><mxGeometry relative="1" as="geometry"/></mxCell><mxCell id="QVTKkRBc17wnMV238mtj-55" value="Confirma os dados solicitados no primeiro cadastro" style="whiteSpace=wrap;html=1;verticalAlign=top;" parent="QVTKkRBc17wnMV238mtj-28" vertex="1"><mxGeometry x="180" y="100" width="120" height="60" as="geometry"/></mxCell><mxCell id="QVTKkRBc17wnMV238mtj-66" value="" style="edgeStyle=orthogonalEdgeStyle;rounded=0;orthogonalLoop=1;jettySize=auto;html=1;" parent="QVTKkRBc17wnMV238mtj-28" source="QVTKkRBc17wnMV238mtj-57" target="QVTKkRBc17wnMV238mtj-65" edge="1"><mxGeometry relative="1" as="geometry"/></mxCell><mxCell id="QVTKkRBc17wnMV238mtj-57" value="Informa o valor a ser transferido na plataforma" style="whiteSpace=wrap;html=1;verticalAlign=top;" parent="QVTKkRBc17wnMV238mtj-28" vertex="1"><mxGeometry x="480" y="100" width="120" height="60" as="geometry"/></mxCell><mxCell id="QVTKkRBc17wnMV238mtj-64" style="edgeStyle=orthogonalEdgeStyle;rounded=0;orthogonalLoop=1;jettySize=auto;html=1;entryX=0;entryY=0.5;entryDx=0;entryDy=0;" parent="QVTKkRBc17wnMV238mtj-28" source="QVTKkRBc17wnMV238mtj-59" target="QVTKkRBc17wnMV238mtj-57" edge="1"><mxGeometry relative="1" as="geometry"/></mxCell><mxCell id="QVTKkRBc17wnMV238mtj-59" value="Válido?" style="rhombus;whiteSpace=wrap;html=1;fillColor=#ffff88;strokeColor=#36393d;fontSize=10;" parent="QVTKkRBc17wnMV238mtj-28" vertex="1"><mxGeometry x="354" y="90" width="80" height="80" as="geometry"/></mxCell><mxCell id="QVTKkRBc17wnMV238mtj-60" value="" style="points=[[0.145,0.145,0],[0.5,0,0],[0.855,0.145,0],[1,0.5,0],[0.855,0.855,0],[0.5,1,0],[0.145,0.855,0],[0,0.5,0]];shape=mxgraph.bpmn.event;html=1;verticalLabelPosition=bottom;labelBackgroundColor=#ffffff;verticalAlign=top;align=center;perimeter=ellipsePerimeter;outlineConnect=0;aspect=fixed;outline=end;symbol=terminate;" parent="QVTKkRBc17wnMV238mtj-28" vertex="1"><mxGeometry x="374" y="220" width="40" height="40" as="geometry"/></mxCell><mxCell id="QVTKkRBc17wnMV238mtj-61" style="edgeStyle=orthogonalEdgeStyle;rounded=0;orthogonalLoop=1;jettySize=auto;html=1;entryX=0.5;entryY=0;entryDx=0;entryDy=0;entryPerimeter=0;" parent="QVTKkRBc17wnMV238mtj-28" source="QVTKkRBc17wnMV238mtj-59" target="QVTKkRBc17wnMV238mtj-60" edge="1"><mxGeometry relative="1" as="geometry"><mxPoint x="419.9999999999998" y="220.00000000000023" as="targetPoint"/></mxGeometry></mxCell><mxCell id="QVTKkRBc17wnMV238mtj-62" value="Não" style="edgeLabel;html=1;align=center;verticalAlign=middle;resizable=0;points=[];" parent="QVTKkRBc17wnMV238mtj-61" connectable="0" vertex="1"><mxGeometry x="-0.4286" relative="1" as="geometry"><mxPoint y="6" as="offset"/></mxGeometry></mxCell><mxCell id="QVTKkRBc17wnMV238mtj-68" value="" style="edgeStyle=orthogonalEdgeStyle;rounded=0;orthogonalLoop=1;jettySize=auto;html=1;" parent="QVTKkRBc17wnMV238mtj-28" source="QVTKkRBc17wnMV238mtj-65" target="QVTKkRBc17wnMV238mtj-67" edge="1"><mxGeometry relative="1" as="geometry"/></mxCell><mxCell id="QVTKkRBc17wnMV238mtj-65" value="Confirma a promessa de rendimento da plataforma" style="whiteSpace=wrap;html=1;verticalAlign=top;" parent="QVTKkRBc17wnMV238mtj-28" vertex="1"><mxGeometry x="670" y="100" width="120" height="60" as="geometry"/></mxCell><mxCell id="QVTKkRBc17wnMV238mtj-67" value="&lt;font style=&quot;font-size: 12px;&quot;&gt;O Endpoint de geração do PIX QR code é solicitado&lt;/font&gt;" style="whiteSpace=wrap;html=1;verticalAlign=top;fillColor=#fff2cc;strokeColor=#d6b656;" parent="QVTKkRBc17wnMV238mtj-28" vertex="1"><mxGeometry x="840" y="95" width="130" height="70" as="geometry"/></mxCell><mxCell id="QVTKkRBc17wnMV238mtj-69" value="" style="points=[[0.145,0.145,0],[0.5,0,0],[0.855,0.145,0],[1,0.5,0],[0.855,0.855,0],[0.5,1,0],[0.145,0.855,0],[0,0.5,0]];shape=mxgraph.bpmn.event;html=1;verticalLabelPosition=bottom;labelBackgroundColor=#ffffff;verticalAlign=top;align=center;perimeter=ellipsePerimeter;outlineConnect=0;aspect=fixed;outline=end;symbol=terminate;" parent="QVTKkRBc17wnMV238mtj-28" vertex="1"><mxGeometry x="1030" y="110" width="40" height="40" as="geometry"/></mxCell><mxCell id="QVTKkRBc17wnMV238mtj-70" style="edgeStyle=orthogonalEdgeStyle;rounded=0;orthogonalLoop=1;jettySize=auto;html=1;entryX=0;entryY=0.5;entryDx=0;entryDy=0;entryPerimeter=0;" parent="QVTKkRBc17wnMV238mtj-28" source="QVTKkRBc17wnMV238mtj-67" target="QVTKkRBc17wnMV238mtj-69" edge="1"><mxGeometry relative="1" as="geometry"/></mxCell><mxCell id="QVTKkRBc17wnMV238mtj-31" value="Endpoint PIX QR Code" style="swimlane;horizontal=0;whiteSpace=wrap;html=1;fillColor=#fff2cc;strokeColor=#d6b656;" parent="WIyWlLk6GJQsqaUBKTNV-1" vertex="1"><mxGeometry y="130" width="1520" height="380" as="geometry"/></mxCell><mxCell id="QVTKkRBc17wnMV238mtj-32" value="" style="ellipse;whiteSpace=wrap;html=1;aspect=fixed;fillColor=#cdeb8b;strokeColor=#36393d;fontSize=10;verticalAlign=top;labelPosition=center;verticalLabelPosition=bottom;align=center;" parent="QVTKkRBc17wnMV238mtj-31" vertex="1"><mxGeometry x="78.80000000000001" y="105" width="40" height="40" as="geometry"/></mxCell><mxCell id="QVTKkRBc17wnMV238mtj-33" value="Valida o payload para gerar o QR code" style="whiteSpace=wrap;html=1;" parent="QVTKkRBc17wnMV238mtj-31" vertex="1"><mxGeometry x="318.79999999999995" y="95" width="120" height="60" as="geometry"/></mxCell><mxCell id="HuPBKqLp8RVZ-WNEAOSd-26" style="edgeStyle=orthogonalEdgeStyle;rounded=0;orthogonalLoop=1;jettySize=auto;html=1;entryX=0;entryY=0.5;entryDx=0;entryDy=0;" parent="QVTKkRBc17wnMV238mtj-31" source="QVTKkRBc17wnMV238mtj-34" target="HuPBKqLp8RVZ-WNEAOSd-25" edge="1"><mxGeometry relative="1" as="geometry"/></mxCell><mxCell id="QVTKkRBc17wnMV238mtj-34" value="Válido?" style="rhombus;whiteSpace=wrap;html=1;fillColor=#ffff88;strokeColor=#36393d;fontSize=10;" parent="QVTKkRBc17wnMV238mtj-31" vertex="1"><mxGeometry x="478.79999999999995" y="85" width="80" height="80" as="geometry"/></mxCell><mxCell id="QVTKkRBc17wnMV238mtj-35" value="" style="edgeStyle=orthogonalEdgeStyle;rounded=0;orthogonalLoop=1;jettySize=auto;html=1;" parent="QVTKkRBc17wnMV238mtj-31" source="QVTKkRBc17wnMV238mtj-33" target="QVTKkRBc17wnMV238mtj-34" edge="1"><mxGeometry relative="1" as="geometry"/></mxCell><mxCell id="HuPBKqLp8RVZ-WNEAOSd-30" style="edgeStyle=orthogonalEdgeStyle;rounded=0;orthogonalLoop=1;jettySize=auto;html=1;" parent="QVTKkRBc17wnMV238mtj-31" source="QVTKkRBc17wnMV238mtj-36" target="HuPBKqLp8RVZ-WNEAOSd-29" edge="1"><mxGeometry relative="1" as="geometry"/></mxCell><mxCell id="QVTKkRBc17wnMV238mtj-36" value="Chama service de gateway" style="whiteSpace=wrap;html=1;fillColor=#dae8fc;strokeColor=#6c8ebf;" parent="QVTKkRBc17wnMV238mtj-31" vertex="1"><mxGeometry x="820" y="95" width="120" height="60" as="geometry"/></mxCell><mxCell id="QVTKkRBc17wnMV238mtj-39" value="" style="points=[[0.145,0.145,0],[0.5,0,0],[0.855,0.145,0],[1,0.5,0],[0.855,0.855,0],[0.5,1,0],[0.145,0.855,0],[0,0.5,0]];shape=mxgraph.bpmn.event;html=1;verticalLabelPosition=bottom;labelBackgroundColor=#ffffff;verticalAlign=top;align=center;perimeter=ellipsePerimeter;outlineConnect=0;aspect=fixed;outline=end;symbol=terminate;" parent="QVTKkRBc17wnMV238mtj-31" vertex="1"><mxGeometry x="498.79999999999995" y="211.25" width="40" height="40" as="geometry"/></mxCell><mxCell id="QVTKkRBc17wnMV238mtj-40" style="edgeStyle=orthogonalEdgeStyle;rounded=0;orthogonalLoop=1;jettySize=auto;html=1;entryX=0.5;entryY=0;entryDx=0;entryDy=0;entryPerimeter=0;" parent="QVTKkRBc17wnMV238mtj-31" source="QVTKkRBc17wnMV238mtj-34" target="QVTKkRBc17wnMV238mtj-39" edge="1"><mxGeometry relative="1" as="geometry"><mxPoint x="538.7999999999997" y="207.50000000000023" as="targetPoint"/></mxGeometry></mxCell><mxCell id="QVTKkRBc17wnMV238mtj-41" value="Não" style="edgeLabel;html=1;align=center;verticalAlign=middle;resizable=0;points=[];" parent="QVTKkRBc17wnMV238mtj-40" connectable="0" vertex="1"><mxGeometry x="-0.4286" relative="1" as="geometry"><mxPoint y="6" as="offset"/></mxGeometry></mxCell><mxCell id="QVTKkRBc17wnMV238mtj-42" style="edgeStyle=orthogonalEdgeStyle;rounded=0;orthogonalLoop=1;jettySize=auto;html=1;entryX=0;entryY=0.5;entryDx=0;entryDy=0;" parent="QVTKkRBc17wnMV238mtj-31" source="QVTKkRBc17wnMV238mtj-43" target="QVTKkRBc17wnMV238mtj-33" edge="1"><mxGeometry relative="1" as="geometry"/></mxCell><mxCell id="QVTKkRBc17wnMV238mtj-43" value="Throttling&lt;br&gt;100/req min" style="rhombus;whiteSpace=wrap;html=1;fillColor=#ffff88;strokeColor=#36393d;fontSize=10;" parent="QVTKkRBc17wnMV238mtj-31" vertex="1"><mxGeometry x="190" y="85" width="80" height="80" as="geometry"/></mxCell><mxCell id="QVTKkRBc17wnMV238mtj-44" value="" style="edgeStyle=orthogonalEdgeStyle;rounded=0;orthogonalLoop=1;jettySize=auto;html=1;entryX=0;entryY=0.5;entryDx=0;entryDy=0;" parent="QVTKkRBc17wnMV238mtj-31" source="QVTKkRBc17wnMV238mtj-32" target="QVTKkRBc17wnMV238mtj-43" edge="1"><mxGeometry relative="1" as="geometry"/></mxCell><mxCell id="QVTKkRBc17wnMV238mtj-45" value="" style="points=[[0.145,0.145,0],[0.5,0,0],[0.855,0.145,0],[1,0.5,0],[0.855,0.855,0],[0.5,1,0],[0.145,0.855,0],[0,0.5,0]];shape=mxgraph.bpmn.event;html=1;verticalLabelPosition=bottom;labelBackgroundColor=#ffffff;verticalAlign=top;align=center;perimeter=ellipsePerimeter;outlineConnect=0;aspect=fixed;outline=end;symbol=terminate;" parent="QVTKkRBc17wnMV238mtj-31" vertex="1"><mxGeometry x="210" y="211.25" width="40" height="40" as="geometry"/></mxCell><mxCell id="QVTKkRBc17wnMV238mtj-46" style="edgeStyle=orthogonalEdgeStyle;rounded=0;orthogonalLoop=1;jettySize=auto;html=1;entryX=0.5;entryY=0;entryDx=0;entryDy=0;entryPerimeter=0;" parent="QVTKkRBc17wnMV238mtj-31" source="QVTKkRBc17wnMV238mtj-43" target="QVTKkRBc17wnMV238mtj-45" edge="1"><mxGeometry relative="1" as="geometry"/></mxCell><mxCell id="QVTKkRBc17wnMV238mtj-47" value="&lt;span style=&quot;font-size: 11px;&quot;&gt;&lt;b&gt;Validar pelo client&lt;/b&gt;&lt;/span&gt;" style="text;whiteSpace=wrap;html=1;strokeColor=#5C5C5C;dashed=1;align=center;labelBackgroundColor=default;labelBorderColor=none;" parent="QVTKkRBc17wnMV238mtj-31" vertex="1"><mxGeometry x="50" y="30" width="200" height="30" as="geometry"/></mxCell><mxCell id="QVTKkRBc17wnMV238mtj-48" style="rounded=0;orthogonalLoop=1;jettySize=auto;html=1;entryX=0;entryY=0;entryDx=0;entryDy=0;dashed=1;dashPattern=1 2;strokeColor=#5C5C5C;endArrow=oval;endFill=1;" parent="QVTKkRBc17wnMV238mtj-31" source="QVTKkRBc17wnMV238mtj-47" target="QVTKkRBc17wnMV238mtj-43" edge="1"><mxGeometry relative="1" as="geometry"><mxPoint x="920.5999999999999" y="-54" as="targetPoint"/></mxGeometry></mxCell><mxCell id="QVTKkRBc17wnMV238mtj-49" value="Retorna com QR code para o usuário realizar a transferência" style="whiteSpace=wrap;html=1;" parent="QVTKkRBc17wnMV238mtj-31" vertex="1"><mxGeometry x="1121" y="95" width="120" height="60" as="geometry"/></mxCell><mxCell id="QVTKkRBc17wnMV238mtj-51" value="" style="points=[[0.145,0.145,0],[0.5,0,0],[0.855,0.145,0],[1,0.5,0],[0.855,0.855,0],[0.5,1,0],[0.145,0.855,0],[0,0.5,0]];shape=mxgraph.bpmn.event;html=1;verticalLabelPosition=bottom;labelBackgroundColor=#ffffff;verticalAlign=top;align=center;perimeter=ellipsePerimeter;outlineConnect=0;aspect=fixed;outline=end;symbol=terminate;" parent="QVTKkRBc17wnMV238mtj-31" vertex="1"><mxGeometry x="1290" y="105" width="40" height="40" as="geometry"/></mxCell><mxCell id="QVTKkRBc17wnMV238mtj-52" style="edgeStyle=orthogonalEdgeStyle;rounded=0;orthogonalLoop=1;jettySize=auto;html=1;entryX=0;entryY=0.5;entryDx=0;entryDy=0;entryPerimeter=0;" parent="QVTKkRBc17wnMV238mtj-31" source="QVTKkRBc17wnMV238mtj-49" target="QVTKkRBc17wnMV238mtj-51" edge="1"><mxGeometry relative="1" as="geometry"/></mxCell><mxCell id="XaS1dq67xTm3EGUxuc3x-40" style="edgeStyle=orthogonalEdgeStyle;rounded=0;orthogonalLoop=1;jettySize=auto;html=1;entryX=0;entryY=0.5;entryDx=0;entryDy=0;" parent="QVTKkRBc17wnMV238mtj-31" target="QVTKkRBc17wnMV238mtj-49" edge="1"><mxGeometry relative="1" as="geometry"/></mxCell><mxCell id="XaS1dq67xTm3EGUxuc3x-39" style="edgeStyle=orthogonalEdgeStyle;rounded=0;orthogonalLoop=1;jettySize=auto;html=1;entryX=0;entryY=0.5;entryDx=0;entryDy=0;" parent="QVTKkRBc17wnMV238mtj-31" edge="1"><mxGeometry relative="1" as="geometry"/></mxCell><mxCell id="XaS1dq67xTm3EGUxuc3x-38" style="edgeStyle=orthogonalEdgeStyle;rounded=0;orthogonalLoop=1;jettySize=auto;html=1;entryX=0.5;entryY=0;entryDx=0;entryDy=0;entryPerimeter=0;" parent="QVTKkRBc17wnMV238mtj-31" edge="1"><mxGeometry relative="1" as="geometry"/></mxCell><mxCell id="HuPBKqLp8RVZ-WNEAOSd-28" style="edgeStyle=orthogonalEdgeStyle;rounded=0;orthogonalLoop=1;jettySize=auto;html=1;entryX=0;entryY=0.5;entryDx=0;entryDy=0;" parent="QVTKkRBc17wnMV238mtj-31" source="HuPBKqLp8RVZ-WNEAOSd-25" target="QVTKkRBc17wnMV238mtj-36" edge="1"><mxGeometry relative="1" as="geometry"/></mxCell><mxCell id="HuPBKqLp8RVZ-WNEAOSd-25" value="Registra o movimento no status inicial" style="whiteSpace=wrap;html=1;" parent="QVTKkRBc17wnMV238mtj-31" vertex="1"><mxGeometry x="630" y="95" width="120" height="60" as="geometry"/></mxCell><mxCell id="HuPBKqLp8RVZ-WNEAOSd-33" value="" style="edgeStyle=orthogonalEdgeStyle;rounded=0;orthogonalLoop=1;jettySize=auto;html=1;" parent="QVTKkRBc17wnMV238mtj-31" source="HuPBKqLp8RVZ-WNEAOSd-29" target="HuPBKqLp8RVZ-WNEAOSd-32" edge="1"><mxGeometry relative="1" as="geometry"/></mxCell><mxCell id="HuPBKqLp8RVZ-WNEAOSd-34" value="Não" style="edgeLabel;html=1;align=center;verticalAlign=middle;resizable=0;points=[];" parent="HuPBKqLp8RVZ-WNEAOSd-33" vertex="1" connectable="0"><mxGeometry x="0.0004" relative="1" as="geometry"><mxPoint y="-3" as="offset"/></mxGeometry></mxCell><mxCell id="HuPBKqLp8RVZ-WNEAOSd-37" style="edgeStyle=orthogonalEdgeStyle;rounded=0;orthogonalLoop=1;jettySize=auto;html=1;entryX=0;entryY=0.5;entryDx=0;entryDy=0;" parent="QVTKkRBc17wnMV238mtj-31" source="HuPBKqLp8RVZ-WNEAOSd-29" target="QVTKkRBc17wnMV238mtj-49" edge="1"><mxGeometry relative="1" as="geometry"/></mxCell><mxCell id="HuPBKqLp8RVZ-WNEAOSd-29" value="Válido?" style="rhombus;whiteSpace=wrap;html=1;fillColor=#ffff88;strokeColor=#36393d;fontSize=10;" parent="QVTKkRBc17wnMV238mtj-31" vertex="1"><mxGeometry x="990" y="85" width="80" height="80" as="geometry"/></mxCell><mxCell id="HuPBKqLp8RVZ-WNEAOSd-32" value="Dispara evento para processar assíncrono" style="whiteSpace=wrap;html=1;" parent="QVTKkRBc17wnMV238mtj-31" vertex="1"><mxGeometry x="970" y="220" width="120" height="60" as="geometry"/></mxCell><mxCell id="HuPBKqLp8RVZ-WNEAOSd-35" value="&lt;b style=&quot;&quot;&gt;&lt;font style=&quot;font-size: 9px;&quot;&gt;Processa periodicamente até obter sucesso ou atingir o limite de retries&lt;/font&gt;&lt;/b&gt;" style="text;whiteSpace=wrap;html=1;strokeColor=#5C5C5C;dashed=1;align=center;labelBackgroundColor=default;labelBorderColor=none;" parent="QVTKkRBc17wnMV238mtj-31" vertex="1"><mxGeometry x="790" y="197.5" width="170" height="32.5" as="geometry"/></mxCell><mxCell id="HuPBKqLp8RVZ-WNEAOSd-36" style="rounded=0;orthogonalLoop=1;jettySize=auto;html=1;dashed=1;dashPattern=1 2;strokeColor=#5C5C5C;endArrow=oval;endFill=1;entryX=-0.031;entryY=0.492;entryDx=0;entryDy=0;entryPerimeter=0;" parent="QVTKkRBc17wnMV238mtj-31" source="HuPBKqLp8RVZ-WNEAOSd-35" target="HuPBKqLp8RVZ-WNEAOSd-32" edge="1"><mxGeometry relative="1" as="geometry"><mxPoint x="950" y="260" as="targetPoint"/></mxGeometry></mxCell><mxCell id="lgPhami1JHI7PETIZIIM-9" value="POST /pix/qrcode" style="text;html=1;strokeColor=none;fillColor=none;align=center;verticalAlign=middle;whiteSpace=wrap;rounded=0;" parent="QVTKkRBc17wnMV238mtj-31" vertex="1"><mxGeometry x="38.199999999999996" y="145" width="100" height="30" as="geometry"/></mxCell><mxCell id="lgPhami1JHI7PETIZIIM-10" value="&lt;font style=&quot;font-size: 9px;&quot;&gt;Endpoint para gerar QR code / copia e cola&lt;/font&gt;" style="text;html=1;strokeColor=none;fillColor=none;align=center;verticalAlign=middle;whiteSpace=wrap;rounded=0;" parent="QVTKkRBc17wnMV238mtj-31" vertex="1"><mxGeometry x="38.199999999999996" y="170" width="121.2" height="30" as="geometry"/></mxCell><mxCell id="lgPhami1JHI7PETIZIIM-76" style="edgeStyle=orthogonalEdgeStyle;rounded=0;orthogonalLoop=1;jettySize=auto;html=1;entryX=0.5;entryY=0;entryDx=0;entryDy=0;fontFamily=Helvetica;fontSize=12;fontColor=default;startSize=23;" parent="QVTKkRBc17wnMV238mtj-31" source="HuPBKqLp8RVZ-WNEAOSd-32" target="lgPhami1JHI7PETIZIIM-82" edge="1"><mxGeometry relative="1" as="geometry"><mxPoint x="1030" y="320" as="targetPoint"/></mxGeometry></mxCell><mxCell id="lgPhami1JHI7PETIZIIM-82" value="" style="shape=mxgraph.bpmn.shape;html=1;verticalLabelPosition=bottom;labelBackgroundColor=#ffffff;verticalAlign=top;align=center;perimeter=ellipsePerimeter;outlineConnect=0;outline=standard;symbol=general;fontSize=11;fillColor=#f8cecc;strokeColor=#b85450;" parent="QVTKkRBc17wnMV238mtj-31" vertex="1"><mxGeometry x="1005" y="320.00000000000006" width="50" height="50" as="geometry"/></mxCell><mxCell id="lgPhami1JHI7PETIZIIM-8" value="" style="endArrow=none;dashed=1;html=1;dashPattern=1 3;strokeWidth=2;rounded=0;entryX=0.5;entryY=1;entryDx=0;entryDy=0;" parent="WIyWlLk6GJQsqaUBKTNV-1" target="QVTKkRBc17wnMV238mtj-67" edge="1"><mxGeometry width="50" height="50" relative="1" as="geometry"><mxPoint x="905" y="130" as="sourcePoint"/><mxPoint x="870" y="50" as="targetPoint"/></mxGeometry></mxCell><mxCell id="HuPBKqLp8RVZ-WNEAOSd-0" value="Webhook de confirmação de pagamento" style="swimlane;horizontal=0;whiteSpace=wrap;html=1;fillColor=#d5e8d4;strokeColor=#82b366;" parent="WIyWlLk6GJQsqaUBKTNV-1" vertex="1"><mxGeometry y="510" width="1520" height="400" as="geometry"/></mxCell><mxCell id="lgPhami1JHI7PETIZIIM-80" style="edgeStyle=orthogonalEdgeStyle;rounded=0;orthogonalLoop=1;jettySize=auto;html=1;entryX=0;entryY=0.5;entryDx=0;entryDy=0;fontFamily=Helvetica;fontSize=12;fontColor=default;startSize=23;" parent="HuPBKqLp8RVZ-WNEAOSd-0" source="lgPhami1JHI7PETIZIIM-57" target="lgPhami1JHI7PETIZIIM-16" edge="1"><mxGeometry relative="1" as="geometry"/></mxCell><mxCell id="lgPhami1JHI7PETIZIIM-57" value="" style="rounded=1;whiteSpace=wrap;html=1;fillColor=#d5e8d4;strokeColor=#82b366;" parent="HuPBKqLp8RVZ-WNEAOSd-0" vertex="1"><mxGeometry x="490" y="39.999999999999986" width="470" height="318.87" as="geometry"/></mxCell><mxCell id="lgPhami1JHI7PETIZIIM-19" style="edgeStyle=orthogonalEdgeStyle;rounded=0;orthogonalLoop=1;jettySize=auto;html=1;entryX=0;entryY=0.5;entryDx=0;entryDy=0;" parent="HuPBKqLp8RVZ-WNEAOSd-0" source="HuPBKqLp8RVZ-WNEAOSd-1" target="lgPhami1JHI7PETIZIIM-20" edge="1"><mxGeometry relative="1" as="geometry"><mxPoint x="230" y="192.57" as="targetPoint"/></mxGeometry></mxCell><mxCell id="HuPBKqLp8RVZ-WNEAOSd-1" value="" style="ellipse;whiteSpace=wrap;html=1;aspect=fixed;fillColor=#cdeb8b;strokeColor=#36393d;fontSize=10;verticalAlign=top;labelPosition=center;verticalLabelPosition=bottom;align=center;" parent="HuPBKqLp8RVZ-WNEAOSd-0" vertex="1"><mxGeometry x="100" y="179.44" width="40" height="40" as="geometry"/></mxCell><mxCell id="lgPhami1JHI7PETIZIIM-60" style="edgeStyle=orthogonalEdgeStyle;rounded=0;orthogonalLoop=1;jettySize=auto;html=1;entryX=0;entryY=0.5;entryDx=0;entryDy=0;fontFamily=Helvetica;fontSize=12;fontColor=default;startSize=23;" parent="HuPBKqLp8RVZ-WNEAOSd-0" source="HuPBKqLp8RVZ-WNEAOSd-2" target="lgPhami1JHI7PETIZIIM-56" edge="1"><mxGeometry relative="1" as="geometry"/></mxCell><mxCell id="HuPBKqLp8RVZ-WNEAOSd-2" value="Busca a movimentação pela&amp;nbsp;unique identifier (id)" style="whiteSpace=wrap;html=1;" parent="HuPBKqLp8RVZ-WNEAOSd-0" vertex="1"><mxGeometry x="550" y="103.12" width="120" height="60" as="geometry"/></mxCell><mxCell id="HuPBKqLp8RVZ-WNEAOSd-18" value="Movimento é atualizado com o status finalizador da transação" style="whiteSpace=wrap;html=1;" parent="HuPBKqLp8RVZ-WNEAOSd-0" vertex="1"><mxGeometry x="790" y="233.12" width="120" height="60" as="geometry"/></mxCell><mxCell id="HuPBKqLp8RVZ-WNEAOSd-22" style="edgeStyle=orthogonalEdgeStyle;rounded=0;orthogonalLoop=1;jettySize=auto;html=1;entryX=0;entryY=0.5;entryDx=0;entryDy=0;" parent="HuPBKqLp8RVZ-WNEAOSd-0" target="HuPBKqLp8RVZ-WNEAOSd-18" edge="1"><mxGeometry relative="1" as="geometry"/></mxCell><mxCell id="HuPBKqLp8RVZ-WNEAOSd-23" style="edgeStyle=orthogonalEdgeStyle;rounded=0;orthogonalLoop=1;jettySize=auto;html=1;entryX=0;entryY=0.5;entryDx=0;entryDy=0;" parent="HuPBKqLp8RVZ-WNEAOSd-0" edge="1"><mxGeometry relative="1" as="geometry"/></mxCell><mxCell id="HuPBKqLp8RVZ-WNEAOSd-24" style="edgeStyle=orthogonalEdgeStyle;rounded=0;orthogonalLoop=1;jettySize=auto;html=1;entryX=0.5;entryY=0;entryDx=0;entryDy=0;entryPerimeter=0;" parent="HuPBKqLp8RVZ-WNEAOSd-0" edge="1"><mxGeometry relative="1" as="geometry"/></mxCell><mxCell id="lgPhami1JHI7PETIZIIM-12" value="&lt;font style=&quot;font-size: 10px;&quot;&gt;PATCH /pix/{unique-id}/confirm&lt;/font&gt;" style="text;html=1;strokeColor=none;fillColor=none;align=center;verticalAlign=middle;whiteSpace=wrap;rounded=0;" parent="HuPBKqLp8RVZ-WNEAOSd-0" vertex="1"><mxGeometry x="40" y="225.57" width="220" height="30" as="geometry"/></mxCell><mxCell id="lgPhami1JHI7PETIZIIM-13" value="&lt;font style=&quot;font-size: 9px;&quot;&gt;Endpoint cadastrado no webhook para confirmar o recebimento, movimentar o dinheiro e finalizar o processamento&amp;nbsp;&lt;/font&gt;" style="text;html=1;strokeColor=none;fillColor=none;align=center;verticalAlign=middle;whiteSpace=wrap;rounded=0;" parent="HuPBKqLp8RVZ-WNEAOSd-0" vertex="1"><mxGeometry x="60" y="256.7" width="210" height="30" as="geometry"/></mxCell><mxCell id="lgPhami1JHI7PETIZIIM-81" style="edgeStyle=orthogonalEdgeStyle;rounded=0;orthogonalLoop=1;jettySize=auto;html=1;entryX=0;entryY=0.5;entryDx=0;entryDy=0;fontFamily=Helvetica;fontSize=12;fontColor=default;startSize=23;" parent="HuPBKqLp8RVZ-WNEAOSd-0" source="lgPhami1JHI7PETIZIIM-16" target="lgPhami1JHI7PETIZIIM-77" edge="1"><mxGeometry relative="1" as="geometry"/></mxCell><mxCell id="lgPhami1JHI7PETIZIIM-16" value="Dispara evento para tratamento assíncrono" style="whiteSpace=wrap;html=1;" parent="HuPBKqLp8RVZ-WNEAOSd-0" vertex="1"><mxGeometry x="1040" y="169.44" width="120" height="60" as="geometry"/></mxCell><mxCell id="lgPhami1JHI7PETIZIIM-67" style="edgeStyle=orthogonalEdgeStyle;rounded=0;orthogonalLoop=1;jettySize=auto;html=1;entryX=0;entryY=0.5;entryDx=0;entryDy=0;fontFamily=Helvetica;fontSize=12;fontColor=default;startSize=23;" parent="HuPBKqLp8RVZ-WNEAOSd-0" source="lgPhami1JHI7PETIZIIM-20" target="lgPhami1JHI7PETIZIIM-57" edge="1"><mxGeometry relative="1" as="geometry"/></mxCell><mxCell id="lgPhami1JHI7PETIZIIM-20" value="Registra a intenção de confirmação do movimento" style="whiteSpace=wrap;html=1;" parent="HuPBKqLp8RVZ-WNEAOSd-0" vertex="1"><mxGeometry x="259.99999999999994" y="169.44" width="120" height="60" as="geometry"/></mxCell><mxCell id="lgPhami1JHI7PETIZIIM-22" value="" style="image;sketch=0;aspect=fixed;html=1;points=[];align=center;fontSize=12;image=img/lib/mscae/Cache_Redis_Product.svg;" parent="HuPBKqLp8RVZ-WNEAOSd-0" vertex="1"><mxGeometry x="350" y="209" width="50" height="42" as="geometry"/></mxCell><mxCell id="lgPhami1JHI7PETIZIIM-23" value="" style="endArrow=none;dashed=1;html=1;dashPattern=1 3;strokeWidth=2;rounded=0;exitX=0.5;exitY=0;exitDx=0;exitDy=0;entryX=0.5;entryY=1;entryDx=0;entryDy=0;" parent="HuPBKqLp8RVZ-WNEAOSd-0" source="lgPhami1JHI7PETIZIIM-20" target="lgPhami1JHI7PETIZIIM-24" edge="1"><mxGeometry width="50" height="50" relative="1" as="geometry"><mxPoint x="250" y="165.57" as="sourcePoint"/><mxPoint x="210" y="135.57" as="targetPoint"/></mxGeometry></mxCell><mxCell id="lgPhami1JHI7PETIZIIM-24" value="&lt;span style=&quot;font-size: 11px;&quot;&gt;&lt;b&gt;Informações do gateway e a unique key do movimento&lt;/b&gt;&lt;/span&gt;" style="text;whiteSpace=wrap;html=1;strokeColor=#5C5C5C;dashed=1;align=center;labelBackgroundColor=default;labelBorderColor=none;" parent="HuPBKqLp8RVZ-WNEAOSd-0" vertex="1"><mxGeometry x="90" y="95.57" width="200" height="30" as="geometry"/></mxCell><mxCell id="lgPhami1JHI7PETIZIIM-27" value="" style="points=[[0.145,0.145,0],[0.5,0,0],[0.855,0.145,0],[1,0.5,0],[0.855,0.855,0],[0.5,1,0],[0.145,0.855,0],[0,0.5,0]];shape=mxgraph.bpmn.event;html=1;verticalLabelPosition=bottom;labelBackgroundColor=#ffffff;verticalAlign=top;align=center;perimeter=ellipsePerimeter;outlineConnect=0;aspect=fixed;outline=end;symbol=terminate;" parent="HuPBKqLp8RVZ-WNEAOSd-0" vertex="1"><mxGeometry x="660" y="243.12" width="40" height="40" as="geometry"/></mxCell><mxCell id="lgPhami1JHI7PETIZIIM-63" style="edgeStyle=orthogonalEdgeStyle;rounded=0;orthogonalLoop=1;jettySize=auto;html=1;fontFamily=Helvetica;fontSize=12;fontColor=default;startSize=23;" parent="HuPBKqLp8RVZ-WNEAOSd-0" source="lgPhami1JHI7PETIZIIM-56" target="HuPBKqLp8RVZ-WNEAOSd-18" edge="1"><mxGeometry relative="1" as="geometry"/></mxCell><mxCell id="lgPhami1JHI7PETIZIIM-56" value="Dinheiro da conta faixada é movimentada" style="whiteSpace=wrap;html=1;fillColor=#dae8fc;strokeColor=#6c8ebf;" parent="HuPBKqLp8RVZ-WNEAOSd-0" vertex="1"><mxGeometry x="790" y="103.12" width="120" height="60" as="geometry"/></mxCell><mxCell id="lgPhami1JHI7PETIZIIM-65" style="edgeStyle=orthogonalEdgeStyle;rounded=0;orthogonalLoop=1;jettySize=auto;html=1;entryX=1;entryY=0.5;entryDx=0;entryDy=0;entryPerimeter=0;fontFamily=Helvetica;fontSize=12;fontColor=default;startSize=23;" parent="HuPBKqLp8RVZ-WNEAOSd-0" source="HuPBKqLp8RVZ-WNEAOSd-18" target="lgPhami1JHI7PETIZIIM-27" edge="1"><mxGeometry relative="1" as="geometry"/></mxCell><mxCell id="lgPhami1JHI7PETIZIIM-68" value="&lt;b style=&quot;&quot;&gt;&lt;font style=&quot;font-size: 9px;&quot;&gt;Processa periodicamente até obter sucesso ou atingir o limite de retries&lt;/font&gt;&lt;/b&gt;" style="text;whiteSpace=wrap;html=1;strokeColor=#5C5C5C;dashed=1;align=center;labelBackgroundColor=default;labelBorderColor=none;" parent="HuPBKqLp8RVZ-WNEAOSd-0" vertex="1"><mxGeometry x="1010" y="103.12" width="170" height="32.5" as="geometry"/></mxCell><mxCell id="lgPhami1JHI7PETIZIIM-72" style="rounded=0;orthogonalLoop=1;jettySize=auto;html=1;dashed=1;dashPattern=1 2;strokeColor=#5C5C5C;endArrow=oval;endFill=1;entryX=0.5;entryY=0;entryDx=0;entryDy=0;exitX=0.5;exitY=1;exitDx=0;exitDy=0;" parent="HuPBKqLp8RVZ-WNEAOSd-0" source="lgPhami1JHI7PETIZIIM-68" target="lgPhami1JHI7PETIZIIM-16" edge="1"><mxGeometry relative="1" as="geometry"><mxPoint x="1375" y="183.12000000000006" as="targetPoint"/><mxPoint x="630" y="435.68" as="sourcePoint"/></mxGeometry></mxCell><mxCell id="lgPhami1JHI7PETIZIIM-77" value="" style="shape=mxgraph.bpmn.shape;html=1;verticalLabelPosition=bottom;labelBackgroundColor=#ffffff;verticalAlign=top;align=center;perimeter=ellipsePerimeter;outlineConnect=0;outline=standard;symbol=general;fontSize=11;fillColor=#f8cecc;strokeColor=#b85450;" parent="HuPBKqLp8RVZ-WNEAOSd-0" vertex="1"><mxGeometry x="1216" y="174.44" width="50" height="50" as="geometry"/></mxCell><mxCell id="0" value="Text" style="text;html=1;resizable=0;autosize=1;align=center;verticalAlign=middle;points=[];fillColor=none;strokeColor=none;rounded=0;" vertex="1" parent="WIyWlLk6GJQsqaUBKTNV-1"><mxGeometry x="695" y="505" width="50" height="30" as="geometry"/></mxCell></root></mxGraphModel></diagram></mxfile>